<mxfile host="Electron" agent="Mozilla/5.0 (X11; Linux x86_64) AppleWebKit/537.36 (KHTML, like Gecko) draw.io/26.0.7 Chrome/128.0.6613.186 Electron/32.2.5 Safari/537.36" version="26.0.7">
  <diagram name="PÃ¡gina-1" id="XG27rpnCtqEgNtqtpFwM">
    <mxGraphModel dx="637" dy="492" grid="1" gridSize="10" guides="1" tooltips="1" connect="1" arrows="1" fold="1" page="1" pageScale="1" pageWidth="827" pageHeight="1169" math="0" shadow="0">
      <root>
        <mxCell id="0" />
        <mxCell id="1" parent="0" />
        <mxCell id="02JBpIoxrCZlTqvIxOg_-9" style="edgeStyle=orthogonalEdgeStyle;rounded=0;orthogonalLoop=1;jettySize=auto;html=1;" edge="1" parent="1" source="02JBpIoxrCZlTqvIxOg_-6" target="02JBpIoxrCZlTqvIxOg_-8">
          <mxGeometry relative="1" as="geometry" />
        </mxCell>
        <mxCell id="02JBpIoxrCZlTqvIxOg_-6" value="" style="rounded=0;whiteSpace=wrap;html=1;" vertex="1" parent="1">
          <mxGeometry x="260" y="320" width="90" height="40" as="geometry" />
        </mxCell>
        <mxCell id="02JBpIoxrCZlTqvIxOg_-10" style="edgeStyle=orthogonalEdgeStyle;rounded=0;orthogonalLoop=1;jettySize=auto;html=1;" edge="1" parent="1" source="02JBpIoxrCZlTqvIxOg_-7" target="02JBpIoxrCZlTqvIxOg_-8">
          <mxGeometry relative="1" as="geometry" />
        </mxCell>
        <mxCell id="02JBpIoxrCZlTqvIxOg_-7" value="" style="rounded=0;whiteSpace=wrap;html=1;" vertex="1" parent="1">
          <mxGeometry x="360" y="320" width="90" height="40" as="geometry" />
        </mxCell>
        <mxCell id="02JBpIoxrCZlTqvIxOg_-8" value="" style="rounded=0;whiteSpace=wrap;html=1;" vertex="1" parent="1">
          <mxGeometry x="310" y="400" width="90" height="40" as="geometry" />
        </mxCell>
        <mxCell id="02JBpIoxrCZlTqvIxOg_-11" value="A" style="rounded=0;whiteSpace=wrap;html=1;" vertex="1" parent="1">
          <mxGeometry x="260" y="320" width="40" height="40" as="geometry" />
        </mxCell>
        <mxCell id="02JBpIoxrCZlTqvIxOg_-12" value="B" style="rounded=0;whiteSpace=wrap;html=1;" vertex="1" parent="1">
          <mxGeometry x="310" y="320" width="40" height="40" as="geometry" />
        </mxCell>
        <mxCell id="02JBpIoxrCZlTqvIxOg_-13" value="C" style="rounded=0;whiteSpace=wrap;html=1;" vertex="1" parent="1">
          <mxGeometry x="360" y="320" width="40" height="40" as="geometry" />
        </mxCell>
        <mxCell id="02JBpIoxrCZlTqvIxOg_-14" value="D" style="rounded=0;whiteSpace=wrap;html=1;" vertex="1" parent="1">
          <mxGeometry x="410" y="320" width="40" height="40" as="geometry" />
        </mxCell>
        <mxCell id="02JBpIoxrCZlTqvIxOg_-15" value="C" style="rounded=0;whiteSpace=wrap;html=1;" vertex="1" parent="1">
          <mxGeometry x="360" y="400" width="40" height="40" as="geometry" />
        </mxCell>
        <mxCell id="02JBpIoxrCZlTqvIxOg_-16" value="B" style="rounded=0;whiteSpace=wrap;html=1;" vertex="1" parent="1">
          <mxGeometry x="310" y="400" width="40" height="40" as="geometry" />
        </mxCell>
      </root>
    </mxGraphModel>
  </diagram>
</mxfile>
